<svg xmlns="http://www.w3.org/2000/svg" width="264.6pt" height="310.5pt" viewBox="0 0 264.6 310.5">
<g fill="#000">
<rect transform="matrix(0.811854914157027 -0.388447677762517 0.388447677762517 0.811854914157027 75.2185588144467 5.71210342395466)" width="13" height="86" rx="6.5" ry="6.5"/>
<rect transform="translate(203.6, 99.9) scale(0.9)" width="48" height="133" rx="24" ry="24"/>
<rect transform="matrix(0.787157736425456 0.436328658221703 -0.436328658221703 0.787157736425456 180.844472917023 1.41303588251464)" width="13" height="86" rx="6.5" ry="6.5"/>
<rect transform="translate(18.6, 99.9) scale(0.9)" width="48" height="133" rx="24" ry="24"/>
<rect transform="translate(80.1, 187.2) scale(0.9)" width="48" height="133" rx="24" ry="24"/>
<ellipse transform="translate(50.4, 24.075) scale(0.9)" rx="91" ry="84" cx="91" cy="84"/>
<rect transform="translate(50.4, 80.775) scale(0.9)" width="182" height="182" rx="22" ry="22"/>
<rect transform="translate(148.05, 187.65) scale(0.9)" width="48" height="133" rx="24" ry="24"/>
</g>
</svg>
